<svg xmlns="http://www.w3.org/2000/svg" xmlns:xlink="http://www.w3.org/1999/xlink" width="480" zoomAndPan="magnify" viewBox="0 0 360 359.999987" height="480" preserveAspectRatio="xMidYMid meet" version="1.0"><defs><g/><clipPath id="7f4c22787e"><rect x="0" width="344" y="0" height="197"/></clipPath></defs><g transform="matrix(1, 0, 0, 1, 4, 60)"><g clip-path="url(#7f4c22787e)"><g fill="#ffde59" fill-opacity="1"><g transform="translate(15.655835, 151.636394)"><g><path d="M 186.28125 -9.59375 C 186.363281 -9.570312 186.425781 -9.5 186.46875 -9.375 C 186.507812 -9.257812 186.535156 -9.164062 186.546875 -9.09375 C 186.515625 -8.96875 186.46875 -8.863281 186.40625 -8.78125 C 186.34375 -8.707031 186.269531 -8.640625 186.1875 -8.578125 C 185.875 -8.390625 185.550781 -8.285156 185.21875 -8.265625 C 184.875 -8.210938 184.546875 -8.179688 184.234375 -8.171875 C 184.078125 -8.191406 183.945312 -8.195312 183.84375 -8.1875 C 182.226562 -8.101562 180.613281 -8.039062 179 -8 C 175.238281 -7.832031 171.503906 -7.65625 167.796875 -7.46875 C 160.585938 -7.082031 153.382812 -6.632812 146.1875 -6.125 C 136.113281 -5.363281 126.046875 -4.445312 115.984375 -3.375 C 108.753906 -2.59375 101.550781 -1.738281 94.375 -0.8125 C 93.582031 -0.726562 92.773438 -0.625 91.953125 -0.5 C 91.128906 -0.382812 90.328125 -0.285156 89.546875 -0.203125 C 84.648438 0.378906 79.765625 1.023438 74.890625 1.734375 L 74.78125 1.75 C 71.914062 2.164062 69.078125 2.644531 66.265625 3.1875 C 65.203125 3.363281 64.164062 3.53125 63.15625 3.6875 C 61.875 3.90625 60.597656 4.34375 59.328125 5 C 49.921875 9.90625 40.285156 13.90625 30.421875 17 C 27.578125 17.90625 24.722656 18.734375 21.859375 19.484375 C 19.003906 20.234375 16.117188 20.820312 13.203125 21.25 C 12.265625 21.382812 11.320312 21.503906 10.375 21.609375 C 8.957031 21.816406 7.554688 21.820312 6.171875 21.625 C 5.628906 21.59375 5.101562 21.492188 4.59375 21.328125 C 4.15625 21.242188 3.773438 21.078125 3.453125 20.828125 C 3.128906 20.585938 2.953125 20.222656 2.921875 19.734375 C 2.941406 19.222656 3.09375 18.773438 3.375 18.390625 C 3.65625 18.003906 3.992188 17.664062 4.390625 17.375 C 5.597656 16.4375 6.914062 15.726562 8.34375 15.25 C 9.03125 14.945312 9.738281 14.664062 10.46875 14.40625 C 12.84375 13.476562 15.25 12.648438 17.6875 11.921875 C 27.445312 8.984375 37.25 6.570312 47.09375 4.6875 C 47.6875 4.550781 48.265625 4.425781 48.828125 4.3125 C 51.859375 3.71875 54.894531 3.148438 57.9375 2.609375 C 59.03125 2.410156 60.101562 2.039062 61.15625 1.5 C 64.71875 -0.457031 68.207031 -2.566406 71.625 -4.828125 C 75.050781 -7.097656 78.347656 -9.585938 81.515625 -12.296875 C 84.179688 -14.492188 86.566406 -16.976562 88.671875 -19.75 C 89.867188 -21.269531 90.785156 -22.929688 91.421875 -24.734375 C 92.234375 -27.316406 91.710938 -29.378906 89.859375 -30.921875 C 88.554688 -31.921875 87.085938 -32.628906 85.453125 -33.046875 C 83.273438 -33.703125 81.039062 -34.148438 78.75 -34.390625 C 76.457031 -34.640625 74.144531 -34.804688 71.8125 -34.890625 C 65.25 -35.015625 58.609375 -34.710938 51.890625 -33.984375 C 51.648438 -33.941406 51.414062 -33.90625 51.1875 -33.875 C 50.925781 -33.84375 50.664062 -33.804688 50.40625 -33.765625 C 49.84375 -33.597656 49.457031 -33.1875 49.25 -32.53125 C 49.132812 -32.257812 49.039062 -31.992188 48.96875 -31.734375 C 48.75 -31.117188 48.523438 -30.507812 48.296875 -29.90625 C 46.628906 -24.769531 44.960938 -19.65625 43.296875 -14.5625 C 41.921875 -10.21875 40.523438 -5.898438 39.109375 -1.609375 C 39.085938 -1.453125 39.054688 -1.316406 39.015625 -1.203125 C 38.835938 -0.671875 38.640625 -0.160156 38.421875 0.328125 C 38.128906 0.753906 37.753906 0.972656 37.296875 0.984375 C 37.035156 1.046875 36.769531 1.0625 36.5 1.03125 C 36 0.851562 35.789062 0.515625 35.875 0.015625 C 36.132812 -1.109375 36.4375 -2.207031 36.78125 -3.28125 C 38.84375 -10.070312 40.910156 -16.84375 42.984375 -23.59375 C 43.671875 -25.738281 44.335938 -27.878906 44.984375 -30.015625 C 45.035156 -30.203125 45.09375 -30.378906 45.15625 -30.546875 C 45.3125 -31.046875 45.453125 -31.53125 45.578125 -32 C 45.734375 -32.726562 45.472656 -33.0625 44.796875 -33 C 44.453125 -32.988281 44.109375 -32.957031 43.765625 -32.90625 C 43.304688 -32.863281 42.863281 -32.828125 42.4375 -32.796875 C 42.363281 -32.785156 42.265625 -32.769531 42.140625 -32.75 C 41.628906 -32.726562 41.132812 -32.75 40.65625 -32.8125 C 40.1875 -32.875 39.867188 -33.1875 39.703125 -33.75 C 39.609375 -34.382812 39.757812 -34.890625 40.15625 -35.265625 C 40.550781 -35.640625 40.992188 -35.957031 41.484375 -36.21875 C 41.671875 -36.320312 41.84375 -36.398438 42 -36.453125 C 43.320312 -37.253906 44.691406 -37.992188 46.109375 -38.671875 C 46.253906 -38.765625 46.414062 -38.84375 46.59375 -38.90625 C 47.664062 -39.414062 48.410156 -40.257812 48.828125 -41.4375 C 50.648438 -46.601562 52.492188 -51.753906 54.359375 -56.890625 C 54.972656 -58.660156 55.609375 -60.460938 56.265625 -62.296875 C 56.359375 -62.554688 56.4375 -62.804688 56.5 -63.046875 C 56.65625 -63.546875 56.847656 -64.054688 57.078125 -64.578125 C 57.378906 -65.191406 57.835938 -65.484375 58.453125 -65.453125 C 58.734375 -65.523438 59.007812 -65.546875 59.28125 -65.515625 C 59.875 -65.347656 60.101562 -64.929688 59.96875 -64.265625 C 59.96875 -64.234375 59.953125 -64.21875 59.921875 -64.21875 C 59.679688 -62.875 59.347656 -61.554688 58.921875 -60.265625 C 57.878906 -57.148438 56.789062 -54.019531 55.65625 -50.875 C 55.320312 -49.832031 54.960938 -48.78125 54.578125 -47.71875 C 54.367188 -47.175781 54.171875 -46.648438 53.984375 -46.140625 C 53.660156 -45.234375 53.347656 -44.316406 53.046875 -43.390625 C 53.046875 -43.390625 53.035156 -43.363281 53.015625 -43.3125 C 52.960938 -43.164062 52.925781 -43.007812 52.90625 -42.84375 C 52.882812 -42.6875 52.972656 -42.585938 53.171875 -42.546875 C 53.304688 -42.503906 53.429688 -42.476562 53.546875 -42.46875 L 53.65625 -42.53125 C 53.863281 -42.613281 54.097656 -42.710938 54.359375 -42.828125 C 54.421875 -42.867188 54.488281 -42.910156 54.5625 -42.953125 C 62.445312 -46.765625 70.316406 -50.671875 78.171875 -54.671875 C 86.023438 -58.679688 93.800781 -62.878906 101.5 -67.265625 C 101.664062 -67.359375 101.820312 -67.429688 101.96875 -67.484375 C 104.320312 -68.878906 106.65625 -70.273438 108.96875 -71.671875 C 111.289062 -73.078125 113.570312 -74.554688 115.8125 -76.109375 C 117.5 -77.242188 119.050781 -78.53125 120.46875 -79.96875 C 123.46875 -83.226562 123.253906 -85.71875 119.828125 -87.4375 C 118.222656 -88.226562 116.519531 -88.757812 114.71875 -89.03125 C 112.925781 -89.300781 111.101562 -89.421875 109.25 -89.390625 C 104.851562 -89.410156 100.445312 -89.097656 96.03125 -88.453125 L 95.953125 -88.4375 C 91.710938 -87.789062 87.445312 -86.957031 83.15625 -85.9375 C 73.644531 -83.707031 64.265625 -80.6875 55.015625 -76.875 C 46.484375 -73.40625 38.25 -69.164062 30.3125 -64.15625 C 28.207031 -62.851562 26.195312 -61.421875 24.28125 -59.859375 C 23.726562 -59.390625 23.171875 -58.960938 22.609375 -58.578125 C 22.296875 -58.390625 21.976562 -58.304688 21.65625 -58.328125 C 21.257812 -58.203125 20.910156 -58.257812 20.609375 -58.5 C 20.367188 -58.75 20.320312 -59 20.46875 -59.25 C 20.613281 -59.5 20.800781 -59.722656 21.03125 -59.921875 C 22.664062 -61.460938 24.398438 -62.804688 26.234375 -63.953125 C 26.265625 -63.953125 26.300781 -63.972656 26.34375 -64.015625 C 33.800781 -68.972656 41.550781 -73.1875 49.59375 -76.65625 C 61.207031 -81.75 73.050781 -85.59375 85.125 -88.1875 C 88.882812 -89.007812 92.632812 -89.691406 96.375 -90.234375 C 100.425781 -90.867188 104.484375 -91.25 108.546875 -91.375 C 112.390625 -91.5625 116.109375 -91.210938 119.703125 -90.328125 C 121.378906 -89.953125 122.894531 -89.253906 124.25 -88.234375 C 125.382812 -87.296875 125.984375 -86.175781 126.046875 -84.875 C 126.117188 -83.582031 125.679688 -82.234375 124.734375 -80.828125 C 123.503906 -79.171875 122.070312 -77.742188 120.4375 -76.546875 C 118.457031 -75.023438 116.421875 -73.613281 114.328125 -72.3125 C 112.242188 -71.007812 110.140625 -69.738281 108.015625 -68.5 C 107.941406 -68.457031 107.847656 -68.398438 107.734375 -68.328125 C 100.304688 -63.941406 92.785156 -59.773438 85.171875 -55.828125 C 77.554688 -51.890625 69.890625 -48.046875 62.171875 -44.296875 C 60.878906 -43.648438 59.585938 -43 58.296875 -42.34375 C 56.492188 -41.4375 54.695312 -40.539062 52.90625 -39.65625 C 52.101562 -39.351562 51.507812 -38.804688 51.125 -38.015625 C 50.8125 -37.265625 50.707031 -36.703125 50.8125 -36.328125 C 50.925781 -35.960938 51.382812 -35.820312 52.1875 -35.90625 C 54.34375 -36.144531 56.503906 -36.347656 58.671875 -36.515625 C 58.828125 -36.535156 58.96875 -36.554688 59.09375 -36.578125 C 63.195312 -36.898438 67.273438 -37.046875 71.328125 -37.015625 C 75.378906 -36.984375 79.378906 -36.660156 83.328125 -36.046875 C 85.035156 -35.753906 86.691406 -35.378906 88.296875 -34.921875 C 89.378906 -34.609375 90.429688 -34.1875 91.453125 -33.65625 C 95.785156 -31.195312 96.617188 -27.425781 93.953125 -22.34375 C 93.066406 -20.6875 92 -19.132812 90.75 -17.6875 C 87.675781 -14.15625 84.28125 -10.992188 80.5625 -8.203125 C 77.363281 -5.773438 74.082031 -3.488281 70.71875 -1.34375 C 70.332031 -1.132812 69.9375 -0.878906 69.53125 -0.578125 C 69.3125 -0.441406 69.078125 -0.296875 68.828125 -0.140625 C 69.097656 0.167969 69.332031 0.34375 69.53125 0.375 C 69.738281 0.414062 69.957031 0.40625 70.1875 0.34375 C 70.1875 0.34375 70.203125 0.34375 70.234375 0.34375 C 70.878906 0.28125 71.5 0.203125 72.09375 0.109375 L 72.171875 0.109375 C 72.585938 0.046875 73 -0.03125 73.40625 -0.125 C 75.289062 -0.394531 77.179688 -0.671875 79.078125 -0.953125 C 90.285156 -2.546875 101.476562 -3.914062 112.65625 -5.0625 C 124.800781 -6.414062 136.945312 -7.429688 149.09375 -8.109375 C 152.945312 -8.328125 156.800781 -8.546875 160.65625 -8.765625 C 165.320312 -9.046875 169.972656 -9.3125 174.609375 -9.5625 C 177.328125 -9.6875 180.039062 -9.753906 182.75 -9.765625 C 183.382812 -9.773438 184.050781 -9.789062 184.75 -9.8125 C 185.25 -9.8125 185.757812 -9.738281 186.28125 -9.59375 Z M 46.515625 -35.5 C 46.578125 -35.550781 46.640625 -35.632812 46.703125 -35.75 C 46.765625 -35.875 46.8125 -35.972656 46.84375 -36.046875 C 46.820312 -36.128906 46.789062 -36.1875 46.75 -36.21875 C 46.707031 -36.25 46.640625 -36.296875 46.546875 -36.359375 C 46.546875 -36.359375 46.523438 -36.378906 46.484375 -36.421875 C 46.078125 -36.273438 45.726562 -36.015625 45.4375 -35.640625 C 45.382812 -35.535156 45.375 -35.4375 45.40625 -35.34375 C 45.4375 -35.257812 45.507812 -35.222656 45.625 -35.234375 C 45.914062 -35.273438 46.210938 -35.363281 46.515625 -35.5 Z M 49.828125 7.1875 C 49.890625 7.132812 49.96875 7.097656 50.0625 7.078125 C 50.1875 7.035156 50.316406 6.953125 50.453125 6.828125 C 50.597656 6.710938 50.691406 6.550781 50.734375 6.34375 C 50.640625 6.195312 50.550781 6.113281 50.46875 6.09375 C 50.414062 6.101562 50.375 6.109375 50.34375 6.109375 C 41.28125 7.859375 32.238281 9.96875 23.21875 12.4375 C 18.75 13.625 14.359375 15.128906 10.046875 16.953125 C 9.941406 17.015625 9.832031 17.070312 9.71875 17.125 C 8.945312 17.394531 8.285156 17.816406 7.734375 18.390625 C 7.585938 18.523438 7.503906 18.671875 7.484375 18.828125 C 7.460938 18.984375 7.554688 19.109375 7.765625 19.203125 C 8.148438 19.296875 8.570312 19.359375 9.03125 19.390625 C 10.53125 19.460938 12.035156 19.390625 13.546875 19.171875 C 14.835938 18.984375 16.113281 18.734375 17.375 18.421875 C 28.414062 15.859375 39.234375 12.113281 49.828125 7.1875 Z M 49.828125 7.1875 "/></g></g></g><g fill="#ffde59" fill-opacity="1"><g transform="translate(116.806435, 136.933949)"><g><path d="M 10.046875 -17.609375 C 10.066406 -16.410156 9.625 -15.554688 8.71875 -15.046875 C 7.8125 -14.546875 7.429688 -14.972656 7.578125 -16.328125 C 7.722656 -17.679688 7.085938 -17.925781 5.671875 -17.0625 C 4.253906 -16.195312 3.128906 -15.207031 2.296875 -14.09375 C 1.003906 -12.3125 -0.09375 -10.445312 -1 -8.5 C -1.101562 -8.320312 -1.175781 -8.1875 -1.21875 -8.09375 C -1.5 -7.539062 -1.773438 -7.015625 -2.046875 -6.515625 C -2.234375 -6.171875 -2.46875 -5.9375 -2.75 -5.8125 C -3.039062 -5.6875 -3.34375 -5.628906 -3.65625 -5.640625 C -3.957031 -5.640625 -4.195312 -5.722656 -4.375 -5.890625 C -4.5625 -6.054688 -4.617188 -6.269531 -4.546875 -6.53125 C -4.410156 -7.03125 -4.25 -7.539062 -4.0625 -8.0625 C -2.9375 -11.144531 -1.78125 -14.25 -0.59375 -17.375 C -0.570312 -17.40625 -0.5625 -17.441406 -0.5625 -17.484375 C -0.40625 -17.960938 -0.203125 -18.414062 0.046875 -18.84375 C 0.335938 -19.257812 0.707031 -19.46875 1.15625 -19.46875 C 1.613281 -19.46875 1.957031 -19.25 2.1875 -18.8125 C 2.46875 -18.226562 2.675781 -17.910156 2.8125 -17.859375 C 2.957031 -17.804688 3.257812 -17.90625 3.71875 -18.15625 C 4.695312 -18.6875 5.664062 -19.101562 6.625 -19.40625 C 7.582031 -19.707031 8.390625 -19.785156 9.046875 -19.640625 C 9.703125 -19.492188 10.035156 -18.816406 10.046875 -17.609375 Z M 10.046875 -17.609375 "/></g></g></g><g fill="#ffde59" fill-opacity="1"><g transform="translate(128.627133, 135.215787)"><g><path d="M 8.65625 -12.34375 C 7.894531 -11.113281 6.957031 -9.953125 5.84375 -8.859375 C 4.726562 -7.773438 3.398438 -6.957031 1.859375 -6.40625 C 0.328125 -5.851562 -0.914062 -5.789062 -1.875 -6.21875 C -2.832031 -6.644531 -3.179688 -7.835938 -2.921875 -9.796875 C -2.523438 -11.859375 -1.851562 -13.859375 -0.90625 -15.796875 C -0.675781 -16.222656 -0.320312 -16.550781 0.15625 -16.78125 C 0.53125 -16.914062 0.867188 -16.894531 1.171875 -16.71875 C 1.484375 -16.550781 1.632812 -16.300781 1.625 -15.96875 C 1.457031 -15.300781 1.265625 -14.640625 1.046875 -13.984375 C 0.828125 -13.328125 0.675781 -12.894531 0.59375 -12.6875 C 0.164062 -11.5 -0.0859375 -10.285156 -0.171875 -9.046875 C -0.0664062 -8.359375 0.859375 -8.445312 2.609375 -9.3125 C 4.367188 -10.1875 5.992188 -11.550781 7.484375 -13.40625 C 8.984375 -15.257812 9.742188 -15.851562 9.765625 -15.1875 C 9.785156 -14.519531 9.414062 -13.570312 8.65625 -12.34375 Z M 2.90625 -20.296875 C 2.832031 -20.210938 2.671875 -20.101562 2.421875 -19.96875 C 2.171875 -19.84375 1.894531 -19.734375 1.59375 -19.640625 C 1.300781 -19.554688 1.0625 -19.570312 0.875 -19.6875 C 0.6875 -19.800781 0.640625 -20.078125 0.734375 -20.515625 C 0.890625 -21.273438 1.082031 -21.945312 1.3125 -22.53125 C 1.539062 -23.113281 1.84375 -23.769531 2.21875 -24.5 C 2.488281 -24.832031 2.800781 -25.035156 3.15625 -25.109375 C 3.507812 -25.191406 3.820312 -25.140625 4.09375 -24.953125 C 4.375 -24.773438 4.488281 -24.492188 4.4375 -24.109375 C 4.25 -22.691406 3.738281 -21.421875 2.90625 -20.296875 Z M 2.90625 -20.296875 "/></g></g></g><g fill="#ffde59" fill-opacity="1"><g transform="translate(137.615231, 133.909349)"><g><path d="M 16.765625 -15.828125 C 17.203125 -15.648438 17.316406 -15.09375 17.109375 -14.15625 C 16.710938 -13.4375 16.269531 -12.75 15.78125 -12.09375 C 15.300781 -11.445312 14.757812 -10.859375 14.15625 -10.328125 C 14.101562 -10.316406 14.078125 -10.296875 14.078125 -10.265625 C 13.679688 -9.890625 13.25 -9.550781 12.78125 -9.25 C 8.882812 -7.175781 6.664062 -7.734375 6.125 -10.921875 C 4.664062 -9.242188 3.671875 -8.203125 3.140625 -7.796875 C 1.910156 -6.785156 0.496094 -6.210938 -1.09375 -6.078125 C -2.28125 -5.972656 -3.128906 -6.210938 -3.640625 -6.796875 C -4.148438 -7.378906 -4.234375 -8.253906 -3.890625 -9.421875 C -3.390625 -11.265625 -2.539062 -12.96875 -1.34375 -14.53125 C 0.0703125 -16.28125 1.707031 -17.757812 3.5625 -18.96875 C 4.550781 -19.632812 5.632812 -20 6.8125 -20.0625 C 7.988281 -20.164062 8.789062 -19.601562 9.21875 -18.375 C 9.375 -18.019531 9.320312 -17.671875 9.0625 -17.328125 C 8.75 -16.929688 8.328125 -16.789062 7.796875 -16.90625 C 7.753906 -16.90625 7.703125 -16.910156 7.640625 -16.921875 C 7.585938 -16.929688 7.535156 -16.953125 7.484375 -16.984375 C 6.898438 -17.597656 6.363281 -17.8125 5.875 -17.625 C 5.382812 -17.4375 4.882812 -17.128906 4.375 -16.703125 C 1.9375 -14.773438 0.277344 -12.335938 -0.59375 -9.390625 C -0.644531 -9.253906 -0.671875 -9.109375 -0.671875 -8.953125 C -0.671875 -8.804688 -0.609375 -8.695312 -0.484375 -8.625 C -0.171875 -8.5625 0.160156 -8.632812 0.515625 -8.84375 C 0.878906 -9.050781 1.226562 -9.320312 1.5625 -9.65625 C 1.90625 -9.988281 2.191406 -10.269531 2.421875 -10.5 C 2.441406 -10.550781 2.453125 -10.578125 2.453125 -10.578125 C 3.554688 -11.804688 4.628906 -13.0625 5.671875 -14.34375 C 6.117188 -14.988281 6.738281 -15.398438 7.53125 -15.578125 C 8.65625 -15.742188 9.195312 -15.300781 9.15625 -14.25 C 9.101562 -13.875 9.050781 -13.484375 9 -13.078125 C 8.769531 -11.390625 8.878906 -10.429688 9.328125 -10.203125 C 9.785156 -9.972656 10.421875 -10.0625 11.234375 -10.46875 C 12.046875 -10.882812 12.816406 -11.550781 13.546875 -12.46875 C 14.285156 -13.394531 14.898438 -14.226562 15.390625 -14.96875 C 15.878906 -15.71875 16.335938 -16.003906 16.765625 -15.828125 Z M 16.765625 -15.828125 "/></g></g></g><g fill="#ffde59" fill-opacity="1"><g transform="translate(153.633327, 131.581086)"><g><path d="M 18.515625 -15.8125 C 18.847656 -15.519531 18.597656 -14.847656 17.765625 -13.796875 C 16.941406 -12.742188 16.03125 -11.828125 15.03125 -11.046875 C 14.039062 -10.265625 12.882812 -9.460938 11.5625 -8.640625 C 10.675781 -8.097656 9.6875 -7.816406 8.59375 -7.796875 C 7.507812 -7.785156 6.882812 -8.351562 6.71875 -9.5 C 6.550781 -10.644531 6.65625 -11.820312 7.03125 -13.03125 C 7.382812 -14.28125 7.40625 -14.898438 7.09375 -14.890625 C 6.789062 -14.878906 6.210938 -14.503906 5.359375 -13.765625 C 3.140625 -11.796875 1.125 -9.617188 -0.6875 -7.234375 C -1.15625 -6.460938 -1.820312 -5.976562 -2.6875 -5.78125 C -3.125 -5.71875 -3.488281 -5.804688 -3.78125 -6.046875 C -4.070312 -6.296875 -4.148438 -6.601562 -4.015625 -6.96875 C -2.910156 -9.976562 -1.78125 -12.957031 -0.625 -15.90625 C -0.363281 -16.53125 0.0976562 -16.96875 0.765625 -17.21875 C 1.054688 -17.3125 1.335938 -17.257812 1.609375 -17.0625 C 1.890625 -16.863281 2.050781 -16.613281 2.09375 -16.3125 C 2.101562 -16.039062 2.035156 -15.703125 1.890625 -15.296875 C 1.835938 -15.046875 1.789062 -14.8125 1.75 -14.59375 C 1.707031 -14.382812 1.707031 -14.210938 1.75 -14.078125 C 1.789062 -13.953125 1.898438 -13.929688 2.078125 -14.015625 C 2.316406 -14.179688 2.554688 -14.363281 2.796875 -14.5625 C 3.398438 -15.03125 3.972656 -15.476562 4.515625 -15.90625 C 5.015625 -16.300781 5.535156 -16.660156 6.078125 -16.984375 C 6.628906 -17.304688 7.21875 -17.554688 7.84375 -17.734375 C 8.851562 -17.953125 9.613281 -17.820312 10.125 -17.34375 C 10.632812 -16.875 10.796875 -16.148438 10.609375 -15.171875 C 10.390625 -14.253906 10.148438 -13.351562 9.890625 -12.46875 C 9.546875 -11.601562 9.554688 -10.984375 9.921875 -10.609375 C 10.285156 -10.242188 11.648438 -10.925781 14.015625 -12.65625 L 15.78125 -14.0625 C 17.425781 -15.5 18.335938 -16.082031 18.515625 -15.8125 Z M 18.515625 -15.8125 "/></g></g></g><g fill="#ffde59" fill-opacity="1"><g transform="translate(171.453995, 128.990816)"><g/></g></g><g fill="#ffde59" fill-opacity="1"><g transform="translate(189.866917, 126.314461)"><g><path d="M 61.09375 -87.140625 C 60.34375 -83.671875 59.492188 -80.222656 58.546875 -76.796875 C 48.691406 -41.398438 40.238281 -11.019531 33.1875 14.34375 C 30.78125 15.144531 30.066406 13.769531 31.046875 10.21875 C 32.722656 2.5625 35.832031 -9.6875 40.375 -26.53125 C 44.925781 -43.375 49.609375 -60.1875 54.421875 -76.96875 C 55.390625 -80.382812 56.238281 -83.820312 56.96875 -87.28125 C 56.976562 -87.4375 57.019531 -87.597656 57.09375 -87.765625 C 57.269531 -88.410156 57.390625 -89.097656 57.453125 -89.828125 C 57.515625 -90.554688 57.425781 -91.320312 57.1875 -92.125 C 56.125 -91.78125 55.171875 -91.3125 54.328125 -90.71875 C 54.117188 -90.601562 53.921875 -90.5 53.734375 -90.40625 C 45.859375 -85.695312 37.765625 -79.882812 29.453125 -72.96875 C 21.140625 -66.0625 14.054688 -59.082031 8.203125 -52.03125 C 6.941406 -50.488281 5.738281 -48.90625 4.59375 -47.28125 C 3.445312 -45.65625 2.398438 -43.9375 1.453125 -42.125 C 0.367188 -40.195312 -0.328125 -38.132812 -0.640625 -35.9375 C -1.234375 -31.820312 0.363281 -29 4.15625 -27.46875 C 6.8125 -26.4375 9.390625 -25.863281 11.890625 -25.75 C 14.398438 -25.632812 16.734375 -25.75 18.890625 -26.09375 C 21.046875 -26.445312 22.894531 -26.832031 24.4375 -27.25 C 25.09375 -27.375 25.65625 -27.5 26.125 -27.625 C 26.4375 -27.695312 26.75 -27.726562 27.0625 -27.71875 C 27.382812 -27.707031 27.691406 -27.570312 27.984375 -27.3125 C 28.441406 -26.832031 28.003906 -26.351562 26.671875 -25.875 C 25.347656 -25.394531 23.503906 -24.984375 21.140625 -24.640625 C 18.785156 -24.296875 16.269531 -24.070312 13.59375 -23.96875 C 8.789062 -23.945312 5 -24.425781 2.21875 -25.40625 C 0.507812 -25.976562 -0.96875 -26.882812 -2.21875 -28.125 C -3.6875 -29.65625 -4.425781 -31.453125 -4.4375 -33.515625 C -4.5 -35.671875 -4.128906 -37.734375 -3.328125 -39.703125 C -1.984375 -42.910156 -0.273438 -45.875 1.796875 -48.59375 C 5.390625 -53.5625 9.6875 -58.476562 14.6875 -63.34375 C 19.6875 -68.21875 24.929688 -72.820312 30.421875 -77.15625 C 35.910156 -81.488281 41.1875 -85.332031 46.25 -88.6875 C 48.582031 -90.175781 50.953125 -91.597656 53.359375 -92.953125 C 54.515625 -93.609375 55.738281 -94.128906 57.03125 -94.515625 C 57.40625 -94.617188 57.742188 -94.664062 58.046875 -94.65625 C 60.472656 -95.132812 61.671875 -94.039062 61.640625 -91.375 C 61.585938 -89.945312 61.40625 -88.535156 61.09375 -87.140625 Z M 61.09375 -87.140625 "/></g></g></g><g fill="#ffde59" fill-opacity="1"><g transform="translate(242.116533, 118.719873)"><g><path d="M 18.515625 -15.8125 C 18.847656 -15.519531 18.597656 -14.847656 17.765625 -13.796875 C 16.941406 -12.742188 16.03125 -11.828125 15.03125 -11.046875 C 14.039062 -10.265625 12.882812 -9.460938 11.5625 -8.640625 C 10.675781 -8.097656 9.6875 -7.816406 8.59375 -7.796875 C 7.507812 -7.785156 6.882812 -8.351562 6.71875 -9.5 C 6.550781 -10.644531 6.65625 -11.820312 7.03125 -13.03125 C 7.382812 -14.28125 7.40625 -14.898438 7.09375 -14.890625 C 6.789062 -14.878906 6.210938 -14.503906 5.359375 -13.765625 C 3.140625 -11.796875 1.125 -9.617188 -0.6875 -7.234375 C -1.15625 -6.460938 -1.820312 -5.976562 -2.6875 -5.78125 C -3.125 -5.71875 -3.488281 -5.804688 -3.78125 -6.046875 C -4.070312 -6.296875 -4.148438 -6.601562 -4.015625 -6.96875 C -2.910156 -9.976562 -1.78125 -12.957031 -0.625 -15.90625 C -0.363281 -16.53125 0.0976562 -16.96875 0.765625 -17.21875 C 1.054688 -17.3125 1.335938 -17.257812 1.609375 -17.0625 C 1.890625 -16.863281 2.050781 -16.613281 2.09375 -16.3125 C 2.101562 -16.039062 2.035156 -15.703125 1.890625 -15.296875 C 1.835938 -15.046875 1.789062 -14.8125 1.75 -14.59375 C 1.707031 -14.382812 1.707031 -14.210938 1.75 -14.078125 C 1.789062 -13.953125 1.898438 -13.929688 2.078125 -14.015625 C 2.316406 -14.179688 2.554688 -14.363281 2.796875 -14.5625 C 3.398438 -15.03125 3.972656 -15.476562 4.515625 -15.90625 C 5.015625 -16.300781 5.535156 -16.660156 6.078125 -16.984375 C 6.628906 -17.304688 7.21875 -17.554688 7.84375 -17.734375 C 8.851562 -17.953125 9.613281 -17.820312 10.125 -17.34375 C 10.632812 -16.875 10.796875 -16.148438 10.609375 -15.171875 C 10.390625 -14.253906 10.148438 -13.351562 9.890625 -12.46875 C 9.546875 -11.601562 9.554688 -10.984375 9.921875 -10.609375 C 10.285156 -10.242188 11.648438 -10.925781 14.015625 -12.65625 L 15.78125 -14.0625 C 17.425781 -15.5 18.335938 -16.082031 18.515625 -15.8125 Z M 18.515625 -15.8125 "/></g></g></g><g fill="#ffde59" fill-opacity="1"><g transform="translate(259.937201, 116.129603)"><g><path d="M 20.75 -17.125 C 20.875 -17.164062 21.019531 -17.179688 21.1875 -17.171875 C 21.363281 -17.160156 21.507812 -17.101562 21.625 -17 C 21.75 -16.820312 21.769531 -16.628906 21.6875 -16.421875 C 21.601562 -16.222656 21.453125 -16.0625 21.234375 -15.9375 C 19.804688 -14.9375 18.375 -13.921875 16.9375 -12.890625 C 15.226562 -11.691406 13.515625 -10.484375 11.796875 -9.265625 C 11.546875 -9.117188 11.300781 -8.945312 11.0625 -8.75 C 10.675781 -8.476562 10.296875 -8.21875 9.921875 -7.96875 C 9.046875 -7.363281 8.523438 -6.546875 8.359375 -5.515625 C 7.867188 -3.078125 7.332031 -0.632812 6.75 1.8125 C 6.03125 5.050781 5 8.1875 3.65625 11.21875 C 2.90625 12.957031 1.925781 14.546875 0.71875 15.984375 C -0.714844 17.796875 -2.476562 19.0625 -4.5625 19.78125 C -8.019531 21.019531 -11.476562 21.285156 -14.9375 20.578125 C -16.363281 20.285156 -17.644531 19.679688 -18.78125 18.765625 C -20.3125 17.535156 -20.59375 16.023438 -19.625 14.234375 C -19.1875 13.453125 -18.6875 12.71875 -18.125 12.03125 C -16.863281 10.488281 -15.460938 9.070312 -13.921875 7.78125 C -8.378906 3 -2.644531 -1.5 3.28125 -5.71875 C 3.320312 -5.71875 3.34375 -5.71875 3.34375 -5.71875 C 3.976562 -6.15625 4.585938 -6.613281 5.171875 -7.09375 C 5.265625 -7.195312 5.382812 -7.398438 5.53125 -7.703125 C 5.675781 -8.015625 5.773438 -8.320312 5.828125 -8.625 C 5.878906 -8.925781 5.828125 -9.128906 5.671875 -9.234375 C 5.515625 -9.335938 5.164062 -9.222656 4.625 -8.890625 C 4.414062 -8.765625 4.226562 -8.632812 4.0625 -8.5 C 3.582031 -8.1875 3.113281 -7.898438 2.65625 -7.640625 C -0.183594 -6.503906 -1.828125 -7.425781 -2.265625 -10.40625 C -2.453125 -12.195312 -2.144531 -13.878906 -1.34375 -15.453125 C -0.550781 -17.035156 0.566406 -18.347656 2.015625 -19.390625 C 3.460938 -20.441406 5.109375 -21.003906 6.953125 -21.078125 C 7.140625 -21.109375 7.332031 -21.113281 7.53125 -21.09375 C 8.050781 -21.09375 8.5625 -21.128906 9.0625 -21.203125 C 9.5625 -21.273438 10.0625 -21.460938 10.5625 -21.765625 C 11.09375 -22.054688 11.523438 -22.046875 11.859375 -21.734375 C 12.203125 -21.429688 12.316406 -20.984375 12.203125 -20.390625 C 11.859375 -19.253906 11.53125 -18.101562 11.21875 -16.9375 C 10.96875 -16.21875 10.742188 -15.46875 10.546875 -14.6875 C 10.304688 -13.894531 10.078125 -13.082031 9.859375 -12.25 C 9.554688 -11.15625 9.566406 -10.601562 9.890625 -10.59375 C 10.222656 -10.59375 10.757812 -10.859375 11.5 -11.390625 C 11.59375 -11.429688 11.695312 -11.476562 11.8125 -11.53125 C 13.15625 -12.425781 14.507812 -13.3125 15.875 -14.1875 C 16.832031 -14.8125 17.785156 -15.429688 18.734375 -16.046875 C 19.367188 -16.460938 20.039062 -16.820312 20.75 -17.125 Z M 4.421875 -0.609375 C 4.734375 -2.203125 4.816406 -3.226562 4.671875 -3.6875 C 4.535156 -4.15625 4.191406 -4.234375 3.640625 -3.921875 C 3.085938 -3.609375 2.382812 -3.085938 1.53125 -2.359375 C 0.976562 -1.890625 0.367188 -1.414062 -0.296875 -0.9375 C -4.296875 2.050781 -8.160156 5.1875 -11.890625 8.46875 C -13.566406 9.789062 -15.003906 11.3125 -16.203125 13.03125 C -17.472656 14.863281 -17.210938 16.285156 -15.421875 17.296875 C -14.359375 17.921875 -13.222656 18.300781 -12.015625 18.4375 C -10.816406 18.570312 -9.53125 18.539062 -8.15625 18.34375 C -6.5 18.226562 -5.023438 17.707031 -3.734375 16.78125 C -2.441406 15.851562 -1.316406 14.578125 -0.359375 12.953125 C 0.210938 11.898438 0.75 10.820312 1.25 9.71875 C 2.6875 6.363281 3.742188 2.921875 4.421875 -0.609375 Z M 1.40625 -9.484375 C 1.882812 -9.367188 2.507812 -9.628906 3.28125 -10.265625 C 4.0625 -10.898438 4.832031 -11.726562 5.59375 -12.75 C 6.351562 -13.78125 6.925781 -14.804688 7.3125 -15.828125 C 7.695312 -16.859375 7.710938 -17.679688 7.359375 -18.296875 C 7.253906 -18.460938 7.117188 -18.613281 6.953125 -18.75 C 6.628906 -19.039062 6.300781 -19.15625 5.96875 -19.09375 C 5.632812 -19.03125 5.289062 -18.921875 4.9375 -18.765625 C 3.75 -18.078125 2.757812 -17.054688 1.96875 -15.703125 C 1.1875 -14.347656 0.722656 -13.054688 0.578125 -11.828125 C 0.429688 -10.609375 0.707031 -9.828125 1.40625 -9.484375 Z M 1.40625 -9.484375 "/></g></g></g><g fill="#ffde59" fill-opacity="1"><g transform="translate(280.873729, 113.086437)"><g><path d="M 0 -4.65625 C -1.644531 -4.414062 -2.59375 -5.144531 -2.84375 -6.84375 C -3.144531 -8.914062 -2.328125 -12.78125 -0.390625 -18.4375 C -0.328125 -18.675781 -0.152344 -18.816406 0.125 -18.859375 C 1.195312 -19.015625 1.796875 -18.65625 1.921875 -17.78125 C 1.972656 -17.476562 1.9375 -17.09375 1.8125 -16.625 C 1.757812 -16.488281 1.1875 -14.085938 0.09375 -9.421875 C -0.0703125 -8.671875 -0.128906 -8.125 -0.078125 -7.78125 C -0.0234375 -7.394531 0.171875 -7.222656 0.515625 -7.265625 C 1.773438 -7.453125 4.609375 -11.050781 9.015625 -18.0625 C 9.585938 -19.007812 10.207031 -19.53125 10.875 -19.625 C 11.851562 -19.769531 12.394531 -19.484375 12.5 -18.765625 C 12.539062 -18.484375 12.394531 -17.394531 12.0625 -15.5 C 11.582031 -12.925781 11.367188 -11.453125 11.421875 -11.078125 C 11.503906 -10.503906 11.738281 -10.242188 12.125 -10.296875 C 13.0625 -10.429688 15.566406 -12.519531 19.640625 -16.5625 C 19.867188 -16.820312 20.082031 -16.960938 20.28125 -16.984375 C 20.707031 -17.046875 20.972656 -16.710938 21.078125 -15.984375 C 21.109375 -15.804688 21.078125 -15.648438 20.984375 -15.515625 C 18.847656 -13.085938 17.015625 -11.207031 15.484375 -9.875 C 14.066406 -8.644531 12.757812 -7.945312 11.5625 -7.78125 L 11.203125 -7.71875 C 9.390625 -7.851562 8.3125 -9.113281 7.96875 -11.5 C 6.3125 -9.550781 4.9375 -7.976562 3.84375 -6.78125 C 2.75 -5.582031 1.46875 -4.875 0 -4.65625 Z M 0 -4.65625 "/></g></g></g><g fill="#ffde59" fill-opacity="1"><g transform="translate(300.986227, 110.163044)"><g><path d="M 8.65625 -12.34375 C 7.894531 -11.113281 6.957031 -9.953125 5.84375 -8.859375 C 4.726562 -7.773438 3.398438 -6.957031 1.859375 -6.40625 C 0.328125 -5.851562 -0.914062 -5.789062 -1.875 -6.21875 C -2.832031 -6.644531 -3.179688 -7.835938 -2.921875 -9.796875 C -2.523438 -11.859375 -1.851562 -13.859375 -0.90625 -15.796875 C -0.675781 -16.222656 -0.320312 -16.550781 0.15625 -16.78125 C 0.53125 -16.914062 0.867188 -16.894531 1.171875 -16.71875 C 1.484375 -16.550781 1.632812 -16.300781 1.625 -15.96875 C 1.457031 -15.300781 1.265625 -14.640625 1.046875 -13.984375 C 0.828125 -13.328125 0.675781 -12.894531 0.59375 -12.6875 C 0.164062 -11.5 -0.0859375 -10.285156 -0.171875 -9.046875 C -0.0664062 -8.359375 0.859375 -8.445312 2.609375 -9.3125 C 4.367188 -10.1875 5.992188 -11.550781 7.484375 -13.40625 C 8.984375 -15.257812 9.742188 -15.851562 9.765625 -15.1875 C 9.785156 -14.519531 9.414062 -13.570312 8.65625 -12.34375 Z M 2.90625 -20.296875 C 2.832031 -20.210938 2.671875 -20.101562 2.421875 -19.96875 C 2.171875 -19.84375 1.894531 -19.734375 1.59375 -19.640625 C 1.300781 -19.554688 1.0625 -19.570312 0.875 -19.6875 C 0.6875 -19.800781 0.640625 -20.078125 0.734375 -20.515625 C 0.890625 -21.273438 1.082031 -21.945312 1.3125 -22.53125 C 1.539062 -23.113281 1.84375 -23.769531 2.21875 -24.5 C 2.488281 -24.832031 2.800781 -25.035156 3.15625 -25.109375 C 3.507812 -25.191406 3.820312 -25.140625 4.09375 -24.953125 C 4.375 -24.773438 4.488281 -24.492188 4.4375 -24.109375 C 4.25 -22.691406 3.738281 -21.421875 2.90625 -20.296875 Z M 2.90625 -20.296875 "/></g></g></g><g fill="#ffde59" fill-opacity="1"><g transform="translate(309.9743, 108.85661)"><g><path d="M 14.28125 -14.78125 C 12.375 -11.726562 10.410156 -9.394531 8.390625 -7.78125 C 6.378906 -6.175781 4.082031 -5.410156 1.5 -5.484375 C -1.070312 -5.554688 -2.347656 -7.09375 -2.328125 -10.09375 C -2.242188 -11.613281 -2.03125 -13.117188 -1.6875 -14.609375 C -0.851562 -18.078125 0.00390625 -21.535156 0.890625 -24.984375 C 1.171875 -26.203125 1.472656 -27.441406 1.796875 -28.703125 C 1.878906 -28.984375 1.957031 -29.265625 2.03125 -29.546875 C 2.15625 -29.992188 2.269531 -30.457031 2.375 -30.9375 C 2.550781 -31.726562 2.195312 -32.078125 1.3125 -31.984375 C 0.820312 -31.910156 0.332031 -31.84375 -0.15625 -31.78125 C -0.382812 -31.75 -0.628906 -31.710938 -0.890625 -31.671875 C -1.140625 -31.585938 -1.40625 -31.507812 -1.6875 -31.4375 C -2.113281 -31.34375 -2.546875 -31.265625 -2.984375 -31.203125 C -3.429688 -31.140625 -3.859375 -31.191406 -4.265625 -31.359375 C -4.378906 -31.378906 -4.46875 -31.429688 -4.53125 -31.515625 C -4.601562 -31.609375 -4.648438 -31.71875 -4.671875 -31.84375 C -4.648438 -31.90625 -4.609375 -31.988281 -4.546875 -32.09375 C -4.484375 -32.195312 -4.390625 -32.273438 -4.265625 -32.328125 C -3.921875 -32.535156 -3.546875 -32.707031 -3.140625 -32.84375 C -2.078125 -33.050781 -1.023438 -33.242188 0.015625 -33.421875 C 0.421875 -33.484375 0.78125 -33.535156 1.09375 -33.578125 C 1.78125 -33.679688 2.285156 -33.78125 2.609375 -33.875 C 2.941406 -33.976562 3.1875 -34.195312 3.34375 -34.53125 C 3.5 -34.875 3.671875 -35.382812 3.859375 -36.0625 C 3.960938 -36.425781 4.097656 -36.832031 4.265625 -37.28125 C 4.648438 -38.5625 5.035156 -39.867188 5.421875 -41.203125 C 5.597656 -41.816406 5.78125 -42.40625 5.96875 -42.96875 C 6.125 -43.53125 6.421875 -43.988281 6.859375 -44.34375 C 7.296875 -44.644531 7.695312 -44.6875 8.0625 -44.46875 C 8.175781 -44.425781 8.273438 -44.332031 8.359375 -44.1875 C 8.453125 -44.039062 8.503906 -43.910156 8.515625 -43.796875 C 8.617188 -43.128906 8.546875 -42.441406 8.296875 -41.734375 C 8.253906 -41.578125 8.195312 -41.40625 8.125 -41.21875 C 8 -40.5625 7.851562 -39.894531 7.6875 -39.21875 C 7.351562 -37.976562 7.050781 -36.71875 6.78125 -35.4375 C 6.6875 -35.195312 6.707031 -35 6.84375 -34.84375 C 6.988281 -34.6875 7.175781 -34.625 7.40625 -34.65625 C 8.632812 -34.800781 9.828125 -34.960938 10.984375 -35.140625 C 11.597656 -35.222656 12.203125 -35.304688 12.796875 -35.390625 C 14.679688 -35.628906 15.472656 -35.46875 15.171875 -34.90625 C 14.953125 -34.59375 14.695312 -34.390625 14.40625 -34.296875 C 14.113281 -34.203125 13.8125 -34.160156 13.5 -34.171875 C 13.3125 -34.148438 13.125 -34.125 12.9375 -34.09375 C 11.019531 -33.695312 9.125 -33.34375 7.25 -33.03125 C 6.375 -32.90625 5.847656 -32.425781 5.671875 -31.59375 C 5.472656 -30.78125 5.28125 -29.976562 5.09375 -29.1875 C 4.8125 -28.132812 4.550781 -27.109375 4.3125 -26.109375 C 4.050781 -25.148438 3.800781 -24.191406 3.5625 -23.234375 C 2.914062 -20.796875 2.300781 -18.351562 1.71875 -15.90625 C 1.394531 -14.300781 1.179688 -12.6875 1.078125 -11.0625 C 0.773438 -8.09375 2.039062 -7.15625 4.875 -8.25 C 7.664062 -9.363281 10.382812 -11.882812 13.03125 -15.8125 C 14.28125 -16.882812 14.695312 -16.539062 14.28125 -14.78125 Z M 14.28125 -14.78125 "/></g></g></g><g fill="#ffde59" fill-opacity="1"><g transform="translate(323.546068, 106.883926)"><g><path d="M 3.203125 -6.703125 L 3.125 -6.6875 C 0.632812 -6.363281 -1.082031 -6.679688 -2.03125 -7.640625 C -2.976562 -8.597656 -3.148438 -10.03125 -2.546875 -11.9375 C -2.023438 -13.40625 -1.285156 -14.71875 -0.328125 -15.875 C -0.00390625 -16.28125 0.335938 -16.613281 0.703125 -16.875 C 1.066406 -17.144531 1.492188 -17.316406 1.984375 -17.390625 C 2.285156 -17.484375 2.628906 -17.476562 3.015625 -17.375 C 3.140625 -17.351562 3.269531 -17.328125 3.40625 -17.296875 C 3.6875 -17.390625 3.957031 -17.53125 4.21875 -17.71875 C 4.269531 -17.78125 4.351562 -17.832031 4.46875 -17.875 C 5.007812 -18.175781 5.597656 -18.351562 6.234375 -18.40625 C 6.492188 -18.445312 6.757812 -18.488281 7.03125 -18.53125 C 8.082031 -18.53125 8.910156 -18.21875 9.515625 -17.59375 C 10.128906 -16.96875 10.429688 -16.148438 10.421875 -15.140625 C 10.421875 -14.523438 10.316406 -13.929688 10.109375 -13.359375 C 8.640625 -9.535156 6.390625 -7.328125 3.359375 -6.734375 Z M 5.9375 -16.515625 C 4.570312 -16.367188 3.421875 -15.800781 2.484375 -14.8125 C 1.554688 -13.820312 0.910156 -12.75 0.546875 -11.59375 C 0.191406 -10.4375 0.179688 -9.53125 0.515625 -8.875 C 0.859375 -8.21875 1.597656 -8.128906 2.734375 -8.609375 C 4.035156 -9.210938 5.125 -10.15625 6 -11.4375 C 6.875 -12.71875 7.347656 -13.890625 7.421875 -14.953125 C 7.503906 -16.015625 7.007812 -16.535156 5.9375 -16.515625 Z M 5.9375 -16.515625 "/></g></g></g></g></g></svg>